<svg width="53" height="53" viewBox="0 0 53 53" fill="none" xmlns="http://www.w3.org/2000/svg">
<path fill-rule="evenodd" clip-rule="evenodd" d="M8.83366 30.377V39.9015C8.83366 40.4271 9.32833 40.8555 9.93783 40.8555H43.0628C43.6723 40.8555 44.167 40.4271 44.167 39.9015V20.9319C44.167 20.4041 43.6723 19.9779 43.0628 19.9779H26.5003C25.8378 19.9779 25.2107 19.6798 24.7911 19.1652L19.0494 12.1472H9.93783C9.32833 12.1472 8.83366 12.5734 8.83366 13.099V30.377ZM43.0628 45.2721H9.93783C6.89474 45.2721 4.41699 42.8628 4.41699 39.9015V13.0989C4.41699 10.1376 6.89474 7.73047 9.93783 7.73047H20.0984C20.7587 7.73047 21.388 8.02639 21.8076 8.54093L27.5471 15.5612H43.0628C46.1059 15.5612 48.5837 17.9683 48.5837 20.9319V39.9015C48.5837 42.8628 46.1059 45.2721 43.0628 45.2721Z" fill="#A48963"/>
<mask id="mask0_1250_35699" style="mask-type:alpha" maskUnits="userSpaceOnUse" x="4" y="7" width="45" height="39">
<path fill-rule="evenodd" clip-rule="evenodd" d="M8.83366 30.377V39.9015C8.83366 40.4271 9.32833 40.8555 9.93783 40.8555H43.0628C43.6723 40.8555 44.167 40.4271 44.167 39.9015V20.9319C44.167 20.4041 43.6723 19.9779 43.0628 19.9779H26.5003C25.8378 19.9779 25.2107 19.6798 24.7911 19.1652L19.0494 12.1472H9.93783C9.32833 12.1472 8.83366 12.5734 8.83366 13.099V30.377ZM43.0628 45.2721H9.93783C6.89474 45.2721 4.41699 42.8628 4.41699 39.9015V13.0989C4.41699 10.1376 6.89474 7.73047 9.93783 7.73047H20.0984C20.7587 7.73047 21.388 8.02639 21.8076 8.54093L27.5471 15.5612H43.0628C46.1059 15.5612 48.5837 17.9683 48.5837 20.9319V39.9015C48.5837 42.8628 46.1059 45.2721 43.0628 45.2721Z" fill="white"/>
</mask>
<g mask="url(#mask0_1250_35699)">
<rect width="53" height="53" fill="#A48963"/>
</g>
</svg>
