<svg width="53" height="53" viewBox="0 0 53 53" fill="none" xmlns="http://www.w3.org/2000/svg">
<path fill-rule="evenodd" clip-rule="evenodd" d="M32.4727 18.5377L24.1164 29.511L20.5102 24.9044C19.7571 23.9415 18.3703 23.7737 17.4097 24.5267C16.4491 25.2776 16.279 26.6666 17.0321 27.625L22.4005 34.4863C22.8201 35.0207 23.4605 35.3321 24.1407 35.3321H24.1561C24.8385 35.3299 25.4834 35.0075 25.8963 34.462L35.9862 21.212C36.726 20.2404 36.5383 18.858 35.5666 18.1182C34.5949 17.3784 33.2081 17.5683 32.4727 18.5377ZM41.9583 39.75C41.9583 40.969 40.9668 41.9583 39.75 41.9583H13.25C12.0332 41.9583 11.0417 40.969 11.0417 39.75V13.25C11.0417 12.031 12.0332 11.0417 13.25 11.0417H39.75C40.9668 11.0417 41.9583 12.031 41.9583 13.25V39.75ZM39.75 6.625H13.25C9.59742 6.625 6.625 9.59742 6.625 13.25V39.75C6.625 43.4026 9.59742 46.375 13.25 46.375H39.75C43.4026 46.375 46.375 43.4026 46.375 39.75V13.25C46.375 9.59742 43.4026 6.625 39.75 6.625Z" fill="#A48963"/>
<mask id="mask0_1250_35698" style="mask-type:alpha" maskUnits="userSpaceOnUse" x="6" y="6" width="41" height="41">
<path fill-rule="evenodd" clip-rule="evenodd" d="M32.4727 18.5377L24.1164 29.511L20.5102 24.9044C19.7571 23.9415 18.3703 23.7737 17.4097 24.5267C16.4491 25.2776 16.279 26.6666 17.0321 27.625L22.4005 34.4863C22.8201 35.0207 23.4605 35.3321 24.1407 35.3321H24.1561C24.8385 35.3299 25.4834 35.0075 25.8963 34.462L35.9862 21.212C36.726 20.2404 36.5383 18.858 35.5666 18.1182C34.5949 17.3784 33.2081 17.5683 32.4727 18.5377ZM41.9583 39.75C41.9583 40.969 40.9668 41.9583 39.75 41.9583H13.25C12.0332 41.9583 11.0417 40.969 11.0417 39.75V13.25C11.0417 12.031 12.0332 11.0417 13.25 11.0417H39.75C40.9668 11.0417 41.9583 12.031 41.9583 13.25V39.75ZM39.75 6.625H13.25C9.59742 6.625 6.625 9.59742 6.625 13.25V39.75C6.625 43.4026 9.59742 46.375 13.25 46.375H39.75C43.4026 46.375 46.375 43.4026 46.375 39.75V13.25C46.375 9.59742 43.4026 6.625 39.75 6.625Z" fill="white"/>
</mask>
<g mask="url(#mask0_1250_35698)">
</g>
</svg>
