<svg width="45" height="45" viewBox="0 0 45 45" fill="none" xmlns="http://www.w3.org/2000/svg">
<path fill-rule="evenodd" clip-rule="evenodd" d="M39.3695 20.5763H39.3751C40.4082 20.5763 41.2482 21.4125 41.2501 22.4456C41.2651 27.4537 39.3282 32.1694 35.7957 35.7206C32.2651 39.2719 27.5626 41.235 22.5545 41.25H22.5001C17.5107 41.25 12.8176 39.315 9.27946 35.7956C5.72821 32.265 3.76509 27.5625 3.75009 22.5544C3.73509 17.5444 5.67196 12.8306 9.20446 9.27937C12.7351 5.72812 17.4376 3.765 22.4457 3.75C23.9363 3.7725 25.4551 3.9225 26.9101 4.27125C27.9151 4.515 28.5357 5.5275 28.292 6.53437C28.0501 7.53938 27.032 8.15812 26.0307 7.91813C24.8663 7.63688 23.6307 7.51875 22.457 7.5C18.4501 7.51125 14.687 9.0825 11.8632 11.9231C9.03759 14.7638 7.48884 18.5362 7.50009 22.5431C7.51134 26.55 9.08259 30.3113 11.9232 33.1369C14.7545 35.9513 18.5082 37.5 22.5001 37.5H22.5432C26.5501 37.4888 30.3132 35.9175 33.137 33.0769C35.9626 30.2344 37.5113 26.4638 37.5001 22.4569C37.4982 21.4219 38.3345 20.5781 39.3695 20.5763ZM15.5494 21.1742C16.2825 20.4411 17.4675 20.4411 18.2007 21.1742L22.4082 25.3817L34.215 11.8892C34.8975 11.1148 36.0807 11.0323 36.8607 11.7148C37.6388 12.3954 37.7175 13.5804 37.035 14.3604L23.91 29.3604C23.5688 29.7504 23.0813 29.9811 22.5619 29.9998H22.5C22.0032 29.9998 21.5269 29.8029 21.1744 29.4504L15.5494 23.8254C14.8163 23.0923 14.8163 21.9073 15.5494 21.1742Z" fill="#A48963"/>
<mask id="mask0_1250_35701" style="mask-type:alpha" maskUnits="userSpaceOnUse" x="3" y="3" width="39" height="39">
<path fill-rule="evenodd" clip-rule="evenodd" d="M39.3695 20.5763H39.3751C40.4082 20.5763 41.2482 21.4125 41.2501 22.4456C41.2651 27.4537 39.3282 32.1694 35.7957 35.7206C32.2651 39.2719 27.5626 41.235 22.5545 41.25H22.5001C17.5107 41.25 12.8176 39.315 9.27946 35.7956C5.72821 32.265 3.76509 27.5625 3.75009 22.5544C3.73509 17.5444 5.67196 12.8306 9.20446 9.27937C12.7351 5.72812 17.4376 3.765 22.4457 3.75C23.9363 3.7725 25.4551 3.9225 26.9101 4.27125C27.9151 4.515 28.5357 5.5275 28.292 6.53437C28.0501 7.53938 27.032 8.15812 26.0307 7.91813C24.8663 7.63688 23.6307 7.51875 22.457 7.5C18.4501 7.51125 14.687 9.0825 11.8632 11.9231C9.03759 14.7638 7.48884 18.5362 7.50009 22.5431C7.51134 26.55 9.08259 30.3113 11.9232 33.1369C14.7545 35.9513 18.5082 37.5 22.5001 37.5H22.5432C26.5501 37.4888 30.3132 35.9175 33.137 33.0769C35.9626 30.2344 37.5113 26.4638 37.5001 22.4569C37.4982 21.4219 38.3345 20.5781 39.3695 20.5763ZM15.5494 21.1742C16.2825 20.4411 17.4675 20.4411 18.2007 21.1742L22.4082 25.3817L34.215 11.8892C34.8975 11.1148 36.0807 11.0323 36.8607 11.7148C37.6388 12.3954 37.7175 13.5804 37.035 14.3604L23.91 29.3604C23.5688 29.7504 23.0813 29.9811 22.5619 29.9998H22.5C22.0032 29.9998 21.5269 29.8029 21.1744 29.4504L15.5494 23.8254C14.8163 23.0923 14.8163 21.9073 15.5494 21.1742Z" fill="white"/>
</mask>
<g mask="url(#mask0_1250_35701)">
<rect width="45" height="45" fill="#A48963"/>
</g>
</svg>
