<svg width="26" height="28" viewBox="0 0 26 28" fill="none" xmlns="http://www.w3.org/2000/svg">
<path fill-rule="evenodd" clip-rule="evenodd" d="M7.8226 6.21434C7.79478 4.95738 6.89169 4 5.42521 4C3.95873 4 3 4.95738 3 6.21434C3 7.44526 3.9304 8.4302 5.36957 8.4302H5.39696C6.89169 8.4302 7.8226 7.44526 7.8226 6.21434ZM7.54068 10.1797H3.25391V22.9994H7.54068V10.1797ZM18.0642 9.87897C20.8851 9.87897 22.9999 11.7116 22.9999 15.6493L22.9997 22.9997H18.7131V16.1411C18.7131 14.4184 18.0928 13.2429 16.541 13.2429C15.3567 13.2429 14.6512 14.0354 14.3414 14.8008C14.2281 15.0751 14.2003 15.4573 14.2003 15.8404V23H9.91296C9.91296 23 9.96947 11.3833 9.91296 10.1803H14.2003V11.9961C14.7692 11.1232 15.7882 9.87897 18.0642 9.87897Z" fill="#F2F2F2"/>
</svg>
