<svg width="45" height="45" viewBox="0 0 45 45" fill="none" xmlns="http://www.w3.org/2000/svg">
<path fill-rule="evenodd" clip-rule="evenodd" d="M30.0344 20.0223L24.9813 14.9692L28.6338 11.3148L33.685 16.3661L30.0344 20.0223ZM17.0238 33.046L11.442 33.5542L11.937 28.0117L22.4688 17.4798L27.5238 22.5348L17.0238 33.046ZM36.3813 13.758L36.3795 13.7561L31.2457 8.62233C29.8563 7.23671 27.4695 7.17108 26.1532 8.49296L9.2857 25.3605C8.67445 25.9698 8.2957 26.7798 8.21695 27.6367L7.50633 35.4555C7.45758 36.0086 7.65445 36.5561 8.0482 36.9498C8.40258 37.3042 8.8807 37.4992 9.37383 37.4992C9.43195 37.4992 9.4882 37.4973 9.54445 37.4917L17.3632 36.7811C18.222 36.7023 19.0301 36.3255 19.6395 35.7161L36.5088 18.8467C37.8738 17.478 37.8157 15.1942 36.3813 13.758Z" fill="#A48963"/>
<mask id="mask0_1250_35760" style="mask-type:alpha" maskUnits="userSpaceOnUse" x="7" y="7" width="31" height="31">
<path fill-rule="evenodd" clip-rule="evenodd" d="M30.0344 20.0223L24.9813 14.9692L28.6338 11.3148L33.685 16.3661L30.0344 20.0223ZM17.0238 33.046L11.442 33.5542L11.937 28.0117L22.4688 17.4798L27.5238 22.5348L17.0238 33.046ZM36.3813 13.758L36.3795 13.7561L31.2457 8.62233C29.8563 7.23671 27.4695 7.17108 26.1532 8.49296L9.2857 25.3605C8.67445 25.9698 8.2957 26.7798 8.21695 27.6367L7.50633 35.4555C7.45758 36.0086 7.65445 36.5561 8.0482 36.9498C8.40258 37.3042 8.8807 37.4992 9.37383 37.4992C9.43195 37.4992 9.4882 37.4973 9.54445 37.4917L17.3632 36.7811C18.222 36.7023 19.0301 36.3255 19.6395 35.7161L36.5088 18.8467C37.8738 17.478 37.8157 15.1942 36.3813 13.758Z" fill="white"/>
</mask>
<g mask="url(#mask0_1250_35760)">
<rect width="45" height="45" fill="#A48963"/>
</g>
</svg>
