<svg width="46" height="46" viewBox="0 0 46 46" fill="none" xmlns="http://www.w3.org/2000/svg">
<path fill-rule="evenodd" clip-rule="evenodd" d="M22.9997 25.8756C21.4147 25.8756 20.1247 24.5857 20.1247 23.0006C20.1247 21.4155 21.4147 20.1256 22.9997 20.1256C24.5848 20.1256 25.8747 21.4155 25.8747 23.0006C25.8747 24.5857 24.5848 25.8756 22.9997 25.8756ZM22.9997 16.2923C19.3006 16.2923 16.2914 19.3014 16.2914 23.0006C16.2914 26.6998 19.3006 29.7089 22.9997 29.7089C26.6989 29.7089 29.7081 26.6998 29.7081 23.0006C29.7081 19.3014 26.6989 16.2923 22.9997 16.2923ZM23.4208 32.5793C15.1677 32.771 9.78376 25.7119 7.99743 22.9922C9.96393 19.9159 14.9166 13.6178 22.5794 13.4223C30.8 13.2133 36.2146 20.2897 38.0009 23.0094C36.0363 26.0857 31.0818 32.3838 23.4208 32.5793ZM41.9129 22.0473C40.69 19.9159 33.9357 9.23243 22.4817 9.59084C11.8864 9.85918 5.72428 19.1933 4.08745 22.0473C3.7482 22.6376 3.7482 23.364 4.08745 23.9543C5.29303 26.0569 11.8097 36.4165 23.0471 36.4165C23.2043 36.4165 23.3614 36.4146 23.5186 36.4108C34.112 36.1405 40.276 26.8083 41.9129 23.9543C42.2502 23.364 42.2502 22.6376 41.9129 22.0473Z" fill="#A48963"/>
<mask id="mask0_1250_35702" style="mask-type:alpha" maskUnits="userSpaceOnUse" x="3" y="9" width="40" height="28">
<path fill-rule="evenodd" clip-rule="evenodd" d="M22.9997 25.8756C21.4147 25.8756 20.1247 24.5857 20.1247 23.0006C20.1247 21.4155 21.4147 20.1256 22.9997 20.1256C24.5848 20.1256 25.8747 21.4155 25.8747 23.0006C25.8747 24.5857 24.5848 25.8756 22.9997 25.8756ZM22.9997 16.2923C19.3006 16.2923 16.2914 19.3014 16.2914 23.0006C16.2914 26.6998 19.3006 29.7089 22.9997 29.7089C26.6989 29.7089 29.7081 26.6998 29.7081 23.0006C29.7081 19.3014 26.6989 16.2923 22.9997 16.2923ZM23.4208 32.5793C15.1677 32.771 9.78376 25.7119 7.99743 22.9922C9.96393 19.9159 14.9166 13.6178 22.5794 13.4223C30.8 13.2133 36.2146 20.2897 38.0009 23.0094C36.0363 26.0857 31.0818 32.3838 23.4208 32.5793ZM41.9129 22.0473C40.69 19.9159 33.9357 9.23243 22.4817 9.59084C11.8864 9.85918 5.72428 19.1933 4.08745 22.0473C3.7482 22.6376 3.7482 23.364 4.08745 23.9543C5.29303 26.0569 11.8097 36.4165 23.0471 36.4165C23.2043 36.4165 23.3614 36.4146 23.5186 36.4108C34.112 36.1405 40.276 26.8083 41.9129 23.9543C42.2502 23.364 42.2502 22.6376 41.9129 22.0473Z" fill="white"/>
</mask>
<g mask="url(#mask0_1250_35702)">
<rect width="46" height="46" fill="#A48963"/>
</g>
</svg>
