<svg width="57" height="57" viewBox="0 0 57 57" fill="none" xmlns="http://www.w3.org/2000/svg">
<path fill-rule="evenodd" clip-rule="evenodd" d="M42.1806 36.9082L28.5006 44.7624L14.8206 36.9082L18.8439 35.1959L27.3179 40.0599C27.6836 40.2712 28.0921 40.3757 28.5006 40.3757C28.9091 40.3757 29.3153 40.2712 29.6834 40.0599L38.1574 35.1935L42.1806 36.9082ZM27.3179 30.5598C27.6836 30.7712 28.0921 30.8757 28.5006 30.8757C28.9091 30.8757 29.3153 30.7712 29.6834 30.5598L38.1574 25.6935L42.1806 27.4082L28.5006 35.2623L14.8206 27.4082L18.8439 25.6935L27.3179 30.5598ZM28.5006 12.0821L42.1806 17.908L28.5006 25.7621L14.8206 17.908L28.5006 12.0821ZM49.8708 26.9521C49.8162 26.052 49.2581 25.2611 48.4292 24.9072L43.3182 22.7317L48.6833 19.6513C49.4647 19.2048 49.9231 18.3522 49.8708 17.4521C49.8162 16.5543 49.2581 15.7611 48.4292 15.4072L29.4292 7.31559C28.8355 7.06147 28.1633 7.06147 27.5696 7.31559L8.5696 15.4072C7.74072 15.7611 7.1826 16.5543 7.13035 17.4521C7.07572 18.3522 7.53647 19.2048 8.31785 19.6513L13.6806 22.7317L8.5696 24.9072C7.74072 25.2611 7.1826 26.052 7.13035 26.9521C7.07572 27.8522 7.53647 28.7048 8.31785 29.1513L13.6806 32.2317L8.5696 34.4072C7.74072 34.7611 7.1826 35.552 7.13035 36.4521C7.07572 37.3522 7.53647 38.2048 8.31785 38.6513L27.3178 49.5597C27.6836 49.7711 28.0921 49.8756 28.5006 49.8756C28.9091 49.8756 29.3152 49.7711 29.6833 49.5597L48.6833 38.6513C49.4647 38.2048 49.9231 37.3522 49.8708 36.4521C49.8162 35.5543 49.2581 34.7611 48.4316 34.4072L43.3206 32.2293L48.6833 29.1513C49.4647 28.7048 49.9231 27.8522 49.8708 26.9521Z" fill="#A48963"/>
<mask id="mask0_1250_35700" style="mask-type:alpha" maskUnits="userSpaceOnUse" x="7" y="7" width="43" height="43">
<path fill-rule="evenodd" clip-rule="evenodd" d="M42.1806 36.9082L28.5006 44.7624L14.8206 36.9082L18.8439 35.1959L27.3179 40.0599C27.6836 40.2712 28.0921 40.3757 28.5006 40.3757C28.9091 40.3757 29.3153 40.2712 29.6834 40.0599L38.1574 35.1935L42.1806 36.9082ZM27.3179 30.5598C27.6836 30.7712 28.0921 30.8757 28.5006 30.8757C28.9091 30.8757 29.3153 30.7712 29.6834 30.5598L38.1574 25.6935L42.1806 27.4082L28.5006 35.2623L14.8206 27.4082L18.8439 25.6935L27.3179 30.5598ZM28.5006 12.0821L42.1806 17.908L28.5006 25.7621L14.8206 17.908L28.5006 12.0821ZM49.8708 26.9521C49.8162 26.052 49.2581 25.2611 48.4292 24.9072L43.3182 22.7317L48.6833 19.6513C49.4647 19.2048 49.9231 18.3522 49.8708 17.4521C49.8162 16.5543 49.2581 15.7611 48.4292 15.4072L29.4292 7.31559C28.8355 7.06147 28.1633 7.06147 27.5696 7.31559L8.5696 15.4072C7.74072 15.7611 7.1826 16.5543 7.13035 17.4521C7.07572 18.3522 7.53647 19.2048 8.31785 19.6513L13.6806 22.7317L8.5696 24.9072C7.74072 25.2611 7.1826 26.052 7.13035 26.9521C7.07572 27.8522 7.53647 28.7048 8.31785 29.1513L13.6806 32.2317L8.5696 34.4072C7.74072 34.7611 7.1826 35.552 7.13035 36.4521C7.07572 37.3522 7.53647 38.2048 8.31785 38.6513L27.3178 49.5597C27.6836 49.7711 28.0921 49.8756 28.5006 49.8756C28.9091 49.8756 29.3152 49.7711 29.6833 49.5597L48.6833 38.6513C49.4647 38.2048 49.9231 37.3522 49.8708 36.4521C49.8162 35.5543 49.2581 34.7611 48.4316 34.4072L43.3206 32.2293L48.6833 29.1513C49.4647 28.7048 49.9231 27.8522 49.8708 26.9521Z" fill="white"/>
</mask>
<g mask="url(#mask0_1250_35700)">
<rect width="57" height="57" fill="#A48963"/>
</g>
</svg>
